<svg xmlns="http://www.w3.org/2000/svg" viewBox="0 0 424 160"><path d="M220.6 86.5h-8l-8.1 8.1-8.1-8.1H4.3v1h191.9l8.1 8.1c.1.1.2.1.3.1s.2 0 .3-.1l8.1-8.1h204.2v-1H220.6zM22.4 24.2v6.6h-9.9v13.5H25v6.6H5.2V4.6H25v6.6H12.5v12.9h9.9v.1zM48.8 7.6c1.8 1.9 2.7 4.8 2.7 8.5v6c0 3.8-.9 6.5-2.7 8.5-1.8 1.9-4.5 2.9-8.1 2.9h-3.5v17.4h-7.3V4.6h10.7c3.7 0 6.3 1.1 8.2 3zM37.2 26.9h3.5c1.2 0 2-.3 2.7-1 .6-.6.9-1.7.9-3.4v-7c0-1.5-.3-2.7-.9-3.4-.6-.6-1.5-1-2.7-1h-3.5v15.8zM58.4 7.1c1.8-2 4.5-3 8-3s6.1 1 8 3c1.8 2 2.7 4.9 2.7 8.6v1.4h-6.8v-1.9c0-1.5-.3-2.8-.9-3.5s-1.5-1.1-2.7-1.1c-1.1 0-2 .4-2.7 1.1-.6.7-.9 1.8-.9 3.5 0 1.9.5 3.7 1.5 5.1 1 1.4 2.6 3.1 4.7 4.9 1.7 1.5 3.1 3 4.2 4.2 1 1.2 1.9 2.7 2.7 4.4s1.1 3.7 1.1 5.8c0 3.8-.9 6.6-2.8 8.6-1.8 2-4.5 3-8.1 3-3.5 0-6.2-1-8.1-3-1.8-2-2.8-4.9-2.8-8.6v-2.7h6.8v3.3c0 3 1.2 4.5 3.8 4.5 2.6 0 3.8-1.5 3.8-4.5 0-1.9-.5-3.6-1.5-5.1-1-1.4-2.6-3.1-4.6-4.9-1.7-1.5-3.1-3-4.2-4.2-1-1.2-1.9-2.7-2.7-4.4-.7-1.7-1.1-3.7-1.1-5.8-.2-3.8.7-6.7 2.6-8.7zm30.7-2.5v46.2h-7.3V4.6h7.3zm12.8 0v39.6h12v6.6H94.7V4.6h7.2zm18.7 2.6c1.8-2 4.6-3.1 8.2-3.1s6.3 1 8.2 3.1c1.8 2 2.9 4.9 2.9 8.6v24c0 3.7-.9 6.5-2.9 8.6-1.9 2-4.6 3.1-8.2 3.1-3.6 0-6.3-1-8.2-3.1-1.9-2-2.9-4.9-2.9-8.6v-24c.1-3.8 1-6.7 2.9-8.6zm8.2 37.6c2.6 0 3.8-1.5 3.8-4.6V15.3c0-3.1-1.2-4.6-3.8-4.6-2.6 0-3.8 1.5-3.8 4.6v24.9c0 3.1 1.2 4.6 3.8 4.6zm22.7 6H145V4.6h9.1l7.5 27.6V4.6h6.4v46.2h-7.5l-9-33.4v33.4zM10.8 65.2H5.9l-1 2.7H3.4l4.2-10.2h1.7l4.2 10.2h-1.6l-1.1-2.7zm-2.4-6.1l-1.9 4.8h3.9l-2-4.8zm7.6-1.5h1.4v10.2H16V57.6zm8.5 5.7v1.2h-3.8v-1.2h3.8zm3.4-5.7H31c3.4 0 5.7 2 5.7 5.1s-2.2 5.1-5.6 5.1h-3.2V57.6zm1.4 1.4v7.5H31c2.6 0 4.2-1.5 4.2-3.8s-1.6-3.8-4.2-3.8h-1.6v.1h-.1zm16.4 6.2h-4.9l-1 2.7h-1.5l4.2-10.2h1.7l4.2 10.2h-1.6l-1.1-2.7zm-2.5-6.1l-1.9 4.8h3.9l-2-4.8zm10.2-.1v8.9H52V59h-3.3v-1.3h8V59h-3.3zm11 6.2h-4.9l-1 2.7H57l4.2-10.2h1.7l4.2 10.2h-1.6l-1.1-2.7zm-2.5-6.1L60 63.9h3.9l-2-4.8zm18.4 6.1h-4.9l-1 2.7h-1.5l4.2-10.2h1.7L83 67.9h-1.6l-1.1-2.7zm-2.4-6.1L76 63.9h3.9l-2-4.8zm14.5.7c-.7-.6-1.5-1-2.7-1-2 0-3.7 1.7-3.7 3.9 0 2.1 1.6 3.9 3.8 3.9 1 0 1.9-.3 2.6-.9l.9 1c-.9.9-2.1 1.3-3.6 1.3-3 0-5.2-2.4-5.2-5.3 0-3 2.4-5.3 5.2-5.3 1.6 0 2.8.5 3.7 1.2l-1 1.2zm7.7-.8v8.9h-1.4V59h-3.3v-1.3h8V59h-3.3zm5.7-1.4h1.4v10.2h-1.4V57.6zm8.8 8.7l3.2-8.6h1.5l-3.9 10.2h-1.7l-3.9-10.2h1.6l3.2 8.6zm12.8-1.1h-4.9l-1 2.7H120l4.2-10.2h1.7l4.2 10.2h-1.6l-1.1-2.7zm-2.5-6.1l-1.9 4.8h3.9l-2-4.8zM135 59v8.9h-1.4V59h-3.3v-1.3h8V59H135zm5.8-1.4h1.4v10.2h-1.4V57.6zm15.1 5.2c0 3-2.4 5.3-5.2 5.3s-5.2-2.4-5.2-5.3 2.4-5.3 5.2-5.3c2.8-.1 5.2 2.3 5.2 5.3zm-1.5 0c0-2.1-1.6-3.9-3.7-3.9-2 0-3.7 1.7-3.7 3.9s1.6 3.9 3.7 3.9c1.9-.1 3.7-1.9 3.7-3.9zm6.1-2.9v7.9h-1.4V57.6h1.5l5.6 8v-8h1.4v10.2h-1.5l-5.6-7.9zm99.2-51.8c1.8 1.9 2.7 4.7 2.7 8.5v5.9c0 3.7-.9 6.5-2.7 8.5-1.8 1.9-4.5 2.9-8.1 2.9h-3.4v17.3H241v-46h10.6c3.6-.1 6.3 1 8.1 2.9zm-11.4 19.2h3.4c1.2 0 2-.3 2.7-1 .6-.6.9-1.7.9-3.4v-6.8c0-1.5-.3-2.7-.9-3.4-.6-.6-1.4-1-2.7-1h-3.4v15.6zm25.9 13.3c0 3 1.2 4.5 3.8 4.5 2.5 0 3.8-1.5 3.8-4.5V5.1h6.8v35c0 3.7-.9 6.5-2.8 8.6-1.8 1.9-4.5 3-8 3s-6.1-1-8-3c-1.8-1.9-2.8-4.8-2.8-8.6v-35h7.3v35.5h-.1zm38.6-32.8c1.7 1.7 2.6 4.4 2.6 8v1.6c0 2.4-.4 4.3-1.1 5.8s-1.9 2.7-3.5 3.4c3.6 1.4 5.4 4.7 5.4 9.8v3.8c0 3.6-.9 6.2-2.8 8.1-1.8 1.8-4.6 2.8-8.2 2.8h-11.3V5h10.9c3.6.1 6.3 1.1 8 2.8zM301 24h2.9c1.4 0 2.6-.4 3.3-1.1.7-.7 1.1-1.9 1.1-3.8v-2.6c0-1.6-.3-2.9-.9-3.6-.6-.7-1.5-1.1-2.8-1.1h-3.5V24h-.1zm0 20.6h4.1c1.2 0 2.2-.3 2.9-1 .6-.7.9-1.8.9-3.5v-4c0-2.1-.4-3.6-1.1-4.4s-1.9-1.2-3.6-1.2H301v14.1zm27.2-39.5v39.5h11.9v6.5H321v-46h7.2zm23.4 0v46h-7.3v-46h7.3zm26.8 35c0 3.7-.9 6.5-2.8 8.6-1.8 2-4.5 3-8 3s-6.1-1-8-3c-1.8-1.9-2.8-4.8-2.8-8.6V16.2c0-3.7.9-6.5 2.8-8.6 1.8-1.9 4.5-3 8-3s6.1 1 8 3c1.8 2 2.8 4.8 2.8 8.6v4.5h-6.8v-4.9c0-3.1-1.2-4.5-3.8-4.5-2.5 0-3.8 1.5-3.8 4.5v24.8c0 3 1.2 4.5 3.8 4.5 2.5 0 3.8-1.5 3.8-4.5v-6.5h6.8v6zm12.2-35v46h-7.3v-46h7.3zm7.6 2.6c1.8-1.9 4.4-3 8-3 3.5 0 6.1 1 8 3 1.8 2 2.7 4.8 2.7 8.6v1.4h-6.8v-1.9c0-1.5-.3-2.8-.9-3.5s-1.5-1.1-2.7-1.1-2 .4-2.7 1.1c-.6.7-.9 1.8-.9 3.5 0 1.9.5 3.6 1.5 5s2.6 3.1 4.6 4.9c1.7 1.5 3.1 3 4.1 4.2s1.9 2.7 2.7 4.4c.7 1.7 1.1 3.7 1.1 5.8 0 3.7-.9 6.5-2.8 8.6s-4.5 3-8 3-6.1-1-8-3-2.8-4.8-2.8-8.6v-2.9h6.8v3.3c0 3 1.2 4.5 3.8 4.5 2.5 0 3.8-1.5 3.8-4.5 0-1.9-.5-3.6-1.5-5s-2.6-3.1-4.6-4.9c-1.7-1.5-3.1-3-4.1-4.2s-1.9-2.7-2.7-4.4c-.7-1.7-1.1-3.7-1.1-5.8-.2-3.7.7-6.6 2.5-8.5zM278.4 61.1V69H277V58.7h1.6l3.7 5.8 3.7-5.8h1.4v10.2H286V61l-3.8 5.9-3.8-5.8zm12.7-2.4h6.4V60h-5v3.1h4.4v1.3h-4.4v3.1h5v1.3h-6.4V58.7zm9.4 0h3.1c3.4 0 5.7 2 5.7 5.1s-2.2 5.1-5.6 5.1h-3.3V58.7h.1zm1.5 1.4v7.5h1.6c2.6 0 4.2-1.4 4.2-3.8s-1.6-3.8-4.2-3.8H302v.1zm10.5-1.4h1.4v10.2h-1.4V58.7zm11.3 7.6h-4.9l-1 2.6h-1.5l4.2-10.2h1.6l4.2 10.2h-1.6l-1-2.6zm-2.3-6.1l-1.9 4.8h3.8l-1.9-4.8zm17.7.9c-.5-.6-1.4-1.2-2.6-1.2s-1.9.5-1.9 1.3c0 2.2 5.7 1.2 5.7 4.8 0 1.8-1.4 3-3.8 3-1.9 0-3.2-.7-3.9-1.7l1-.9c.7.9 1.6 1.3 2.9 1.3 1.4 0 2.1-.6 2.1-1.5 0-2.5-5.7-1.4-5.7-4.9 0-1.6 1.4-2.8 3.6-2.8 1.6 0 2.9.7 3.5 1.5l-.9 1.1zm11.3-.1c-.7-.6-1.5-.9-2.7-.9-2 0-3.7 1.7-3.7 3.9s1.6 3.9 3.8 3.9c1 0 1.9-.3 2.6-.9l.9 1c-.9.9-2.1 1.3-3.6 1.3-3 0-5.2-2.4-5.2-5.3s2.4-5.3 5.2-5.3c1.6 0 2.8.5 3.7 1.2l-1 1.1zm9.9 5.3h-4.9l-1 2.6H353l4.2-10.2h1.6l4.2 10.2h-1.6l-1-2.6zm-2.4-6.1l-2 4.8h3.8l-1.8-4.8zm7.6-1.5h1.4v8.8h5.3v1.3h-6.7V58.7zm9.3 0h6.4V60h-5v3.1h4.4v1.3h-4.4v3.1h5v1.3h-6.4V58.7zm-350.8 71v12.9c0 6.5-3.2 10.2-9.5 10.2s-9.5-3.7-9.5-10.2v-21.1c0-6.5 3.2-10.2 9.5-10.2s9.5 3.7 9.5 10.2v3.9h-6v-4.3c0-2.9-1.3-4-3.3-4s-3.3 1.1-3.3 4V143c0 2.9 1.3 3.9 3.3 3.9s3.3-1 3.3-3.9v-7.5h-2.9v-5.8h8.9zm9.4 13.3c0 2.9 1.3 3.9 3.3 3.9s3.3-1 3.3-3.9v-31.3h6v30.9c0 6.5-3.2 10.2-9.5 10.2s-9.5-3.7-9.5-10.2v-30.9h6.4V143zm30.4 9.3l-1.1-7.4H55l-1.1 7.4H48l6.5-40.5h9.3l6.5 40.5h-6.4zm-2-12.9L58.8 119l-3.1 20.5h6.2v-.1zm23.7 7.9V141c0-3.8-1.3-5.2-4.2-5.2h-2.2v16.5h-6.4v-40.5h9.6c6.6 0 9.4 3.1 9.4 9.3v3.2c0 4.2-1.3 6.9-4.2 8.2 3.2 1.3 4.2 4.4 4.2 8.6v6.3c0 2 .1 3.4.7 4.9H86c-.2-1-.4-1.7-.4-5zM79.2 130h2.5c2.4 0 3.8-1 3.8-4.3v-4c0-2.9-1-4.2-3.2-4.2h-3.1V130zm31.4 22.3l-1.1-7.4h-7.8l-1.1 7.4h-5.8l6.5-40.5h9.3l6.5 40.5h-6.5zm-2-12.9l-3.1-20.5-3.1 20.5h6.2zm16.7 12.9h-5.7v-40.5h8l6.5 24.3v-24.3h5.7v40.5h-6.5l-7.9-29.3v29.3h-.1zm36.7-40.5v5.8h-6.7v34.7h-6.4v-34.7h-6.7v-5.8H162zm17.6 17.1v5.8h-8.7v11.9h11v5.8h-17.4v-40.5h17.4v5.8h-11V129h8.7v-.1zm20.4 0v5.8h-8.7v11.9h11v5.8h-17.4v-40.5h17.4v5.8h-11V129h8.7v-.1zm15.4-17.1c6.4 0 9.5 3.5 9.5 10v20.5c0 6.5-3.1 10-9.5 10h-10.1v-40.5h10.1zm-3.7 34.7h3.6c2 0 3.2-1 3.2-3.9v-21.1c0-2.9-1.2-3.9-3.2-3.9h-3.6v28.9zm35.3-35.2c6.3 0 9.7 3.7 9.7 10.2v21.1c0 6.5-3.4 10.2-9.7 10.2s-9.7-3.7-9.7-10.2v-21.1c.1-6.5 3.5-10.2 9.7-10.2zm0 35.7c2 0 3.3-1.1 3.3-4v-21.9c0-2.9-1.3-4-3.3-4s-3.3 1.1-3.3 4V143c0 2.9 1.3 4 3.3 4zm19.1-4c0 2.9 1.3 3.9 3.3 3.9s3.3-1 3.3-3.9v-31.3h6v30.9c0 6.5-3.2 10.2-9.5 10.2s-9.5-3.7-9.5-10.2v-30.9h6.4V143zm34.7-31.2v5.8h-6.7v34.7h-6.4v-34.7H281v-5.8h19.8zm21.1 30.8c0 6.5-3.2 10.2-9.5 10.2s-9.5-3.7-9.5-10.2v-21.1c0-6.5 3.2-10.2 9.5-10.2s9.5 3.7 9.5 10.2v3.9h-6v-4.3c0-2.9-1.3-4-3.3-4s-3.3 1.1-3.3 4V143c0 2.9 1.3 3.9 3.3 3.9s3.3-1 3.3-3.9v-5.8h6v5.4zm12.5-31.3c6.3 0 9.7 3.7 9.7 10.2v21.1c0 6.5-3.4 10.2-9.7 10.2s-9.7-3.7-9.7-10.2v-21.1c0-6.5 3.4-10.2 9.7-10.2zm0 35.7c2 0 3.3-1.1 3.3-4v-21.9c0-2.9-1.3-4-3.3-4s-3.3 1.1-3.3 4V143c0 2.9 1.2 4 3.3 4zm30.7-35.2h8.9v40.5h-6v-29.1l-4.4 29.1h-6l-4.7-28.7v28.7h-5.6v-40.5h8.9l4.7 28.8 4.2-28.8zm27.6 17.1v5.8H384v11.9h11v5.8h-17.4v-40.5H395v5.8h-11V129h8.7v-.1zm14.3-17.6c6.2 0 9.4 3.7 9.4 10.2v1.3h-6v-1.7c0-2.9-1.2-4-3.2-4s-3.2 1.1-3.2 4c0 8.3 12.4 9.9 12.4 21.5 0 6.5-3.2 10.2-9.5 10.2s-9.5-3.7-9.5-10.2v-2.5h6v2.9c0 2.9 1.3 3.9 3.3 3.9s3.3-1 3.3-3.9c0-8.3-12.4-9.9-12.4-21.5 0-6.5 3.2-10.2 9.4-10.2z"/><path d="M206.385 35.65l8.732-8.733a1.157 1.157 0 00-1.635-1.635l-8.732 8.733-8.732-8.733a1.157 1.157 0 00-1.635 1.635l8.732 8.733-8.732 8.733a1.155 1.155 0 101.634 1.635l8.732-8.733 8.732 8.733a1.15 1.15 0 001.634 0 1.157 1.157 0 000-1.635l-8.73-8.733z" fill="#e32041"/></svg>