<svg version="1.1" id="Layer_1" xmlns="http://www.w3.org/2000/svg" x="0" y="0" viewBox="0 0 32 32" xml:space="preserve"><style>.st0{display:none}.st1{display:inline;fill-rule:evenodd;clip-rule:evenodd}.st1,.st4{fill:#fff}</style><g id="twitter" class="st0"><path id="twitter1" class="st1" d="M15.823 12.353a13.77 13.77 0 01-9.995-5.068 4.852 4.852 0 001.501 6.473 4.81 4.81 0 01-2.197-.606c-.053 2.248 1.558 4.349 3.889 4.817a4.852 4.852 0 01-2.19.083 4.857 4.857 0 004.53 3.368 9.752 9.752 0 01-7.18 2.008 13.73 13.73 0 007.091 2.175h.708c8.776-.203 13.722-7.693 13.42-14.421a9.83 9.83 0 002.418-2.51 9.69 9.69 0 01-2.784.762 4.857 4.857 0 002.132-2.683 9.669 9.669 0 01-3.08 1.177 4.843 4.843 0 00-3.54-1.53c-3.13 0-5.43 2.921-4.723 5.955z"/></g><g id="facebook" class="st0"><path id="facebook1" class="st1" d="M22.102 4.35v3.73l-2.214.006c-1.735 0-2.069.824-2.069 2.029v2.67h4.133l-.535 4.173H17.82v10.861h-4.311V16.957H9.898v-4.173h3.609v-3.08c0-3.574 2.178-5.523 5.371-5.523 1.524.001 2.838.117 3.224.169"/></g><g id="linkedin"><path id="linkedin1" d="M5.151 27.818h4.88V12.061h-4.88v15.757zm2.417-17.82c1.594 0 2.886-1.302 2.886-2.908 0-1.605-1.292-2.907-2.886-2.907S4.682 5.484 4.682 7.089c0 1.606 1.292 2.909 2.886 2.909zm20.75 17.82h-4.856v-8.272c0-2.268-.863-3.535-2.657-3.535-1.954 0-2.973 1.318-2.973 3.535v8.272h-4.68V12.061h4.68v2.123s1.406-2.604 4.751-2.604c3.343 0 5.735 2.04 5.735 6.262v9.976z" fill-rule="evenodd" clip-rule="evenodd" fill="#fff"/></g><g id="wechat" class="st0"><g id="wechat1" display="inline"><path class="st4" d="M21.189 12.068c-2.473.129-4.624.879-6.37 2.573-1.764 1.711-2.57 3.808-2.349 6.408-.967-.12-1.847-.251-2.733-.326-.306-.026-.669.011-.928.157-.86.485-1.684 1.033-2.661 1.644.179-.811.295-1.521.501-2.204.151-.502.081-.781-.381-1.108-2.969-2.096-4.221-5.233-3.284-8.463.867-2.988 2.994-4.8 5.886-5.744 3.946-1.289 8.382.026 10.781 3.159.866 1.131 1.398 2.401 1.538 3.904zM9.806 11.061c.023-.591-.489-1.123-1.097-1.141a1.109 1.109 0 00-1.153 1.063v.008a1.094 1.094 0 001.053 1.135l.031.001c.622.016 1.143-.46 1.166-1.066zm5.939-1.141c-.61.011-1.126.531-1.115 1.124a1.113 1.113 0 001.137 1.088h.007a1.093 1.093 0 001.1-1.086v-.035a1.098 1.098 0 00-1.107-1.091h-.022z"/><path class="st4" d="M26.746 27.487c-.783-.349-1.502-.872-2.266-.952-.762-.08-1.563.36-2.36.441-2.428.248-4.604-.428-6.397-2.087-3.411-3.155-2.924-7.993 1.023-10.579 3.508-2.298 8.652-1.532 11.126 1.657 2.158 2.783 1.905 6.476-.73 8.814-.762.677-1.037 1.233-.548 2.125.089.165.1.373.152.581zm-8.915-8.631a.923.923 0 00.928-.882.928.928 0 00-.894-.96l-.027-.001a.938.938 0 00-.932.944v.011a.93.93 0 00.925.888zm5.747-1.841a.923.923 0 00-.915.881c-.026.5.358.926.858.952l.045.001c.5.002.896-.377.914-.875a.915.915 0 00-.87-.958l-.032-.001z"/></g></g></svg>