<svg xmlns="http://www.w3.org/2000/svg" viewBox="0 0 314.68 100.54"><defs><style>.cls-1{fill:#fff}</style></defs><g id="Layer_2" data-name="Layer 2"><g id="Layer_1-2" data-name="Layer 1"><path class="cls-1" d="M112.07 99.66l-2.69-18H90.26l-2.69 18H73.26L89.13.51h22.8l15.87 99.15zm-4.81-31.44l-7.51-50.14-7.51 50.14zM230.17.51v14.17h-16.29v85H198.3v-85H182V.51zM163.5 2.74q0 9.65-8.07 9.64t-8.08-9.64V.4h-15.58v1.35q0 12 5.95 18.49T155 26.68q11.34 0 17.28-6.44t5.95-18.49V.4H163.5zm-.79 80.46h14.73v17.34h-14.73zm-16.14-29.13q0-9.78 8.07-9.78t8.07 9.78v10.62h14.73v-9.63q0-12-5.94-18.49t-17.29-6.44q-11.33 0-17.28 6.44T131 55.06v44.69h15.58zM73.88 6.75Q68.08.51 56.46.51h-23v99.15h15.63V62.41h7.37q11.61 0 17.42-6.23t5.81-18.27V25q0-12-5.81-18.25zM64.11 38.9q0 5.1-1.91 7.22t-5.74 2.13h-7.37V14.68h7.37a7.36 7.36 0 015.74 2.12q1.9 2.13 1.91 7.23z"/><path d="M0 23.5h3V27h18.2v3.34H3v3.49H0zm21.23-1.45H0v-3.34h9.1v-3.79H0v-3.4h21.23v3.4h-9.1v3.79h9.1zM9 1.18h3v4.58h6.2V0h3v9.1H0V0h3v5.76h6z" fill="#e5133a"/><path class="cls-1" d="M238.56 51.44a3.82 3.82 0 01.7 2.45v1.49a3.44 3.44 0 01-.77 2.45 3.19 3.19 0 01-2.4.8h-1.71v5.65h-.9V50.56h2.84a2.69 2.69 0 012.24.88zm-.74 5.81a2.54 2.54 0 00.54-1.81v-1.61a3 3 0 00-.47-1.82 1.83 1.83 0 00-1.57-.63h-1.94v6.43h1.71a2.33 2.33 0 001.73-.56zm4.51-5.86a2.7 2.7 0 012.25-1 2.74 2.74 0 012.28.94 4 4 0 01.75 2.53v7a4 4 0 01-.75 2.53 2.77 2.77 0 01-2.28.94 2.7 2.7 0 01-2.25-1 4 4 0 01-.75-2.52v-7a3.94 3.94 0 01.75-2.42zm.67 11.49a1.85 1.85 0 001.59.69 1.87 1.87 0 001.61-.69 3.09 3.09 0 00.52-1.89v-7.14a3.05 3.05 0 00-.52-1.89 1.85 1.85 0 00-1.61-.7A1.83 1.83 0 00243 52a3.12 3.12 0 00-.51 1.89V61a3.16 3.16 0 00.51 1.88zm9.12 1.4l-2.21-13.72h.88l2.06 12.5 2-12.44h1L257.73 63l2-12.46h.8l-2.19 13.72h-1.18l-1.86-11.21-1.92 11.23zm15.41-6.55h-3.74v5.73h4.51v.82h-5.41V50.56h5.41v.82h-4.51v5.53h3.74zm9.02-4.08v1.2a3.31 3.31 0 01-.48 1.91 2.37 2.37 0 01-1.5.93c1.32.29 2 1.22 2 2.81v2.13a3.14 3.14 0 00.33 1.65h-.94a2 2 0 01-.23-.68 6.42 6.42 0 01-.06-1v-2.12a2.22 2.22 0 00-.65-1.82 3.05 3.05 0 00-1.92-.52h-1.43v6.14h-.9V50.56h2.86q2.92 0 2.92 3.09zM275 56.83a2.18 2.18 0 00.63-1.8v-1.3a2.68 2.68 0 00-.49-1.75 1.92 1.92 0 00-1.57-.6h-1.94v5.94h1.45a3.09 3.09 0 001.92-.49zm8.94.9h-3.74v5.73h4.51v.82h-5.42V50.56h5.42v.82h-4.51v5.53h3.74zm8.52-6.26a3.82 3.82 0 01.75 2.5v6.9a3.82 3.82 0 01-.75 2.5 2.77 2.77 0 01-2.28.91h-3V50.56h3a2.77 2.77 0 012.28.91zm-.68 11.31a2.93 2.93 0 00.53-1.87v-7a2.9 2.9 0 00-.53-1.86 1.91 1.91 0 00-1.62-.69h-2.1v12.1h2.1a1.93 1.93 0 001.62-.68zm12.96-11.5a3.23 3.23 0 01.65 2.2v.78a3.55 3.55 0 01-.4 1.83 2.08 2.08 0 01-1.41.88c1.38.27 2.06 1.25 2.06 2.94v1.19a3.44 3.44 0 01-.73 2.36 2.93 2.93 0 01-2.27.82h-2.94V50.56h2.88a2.78 2.78 0 012.16.72zm-.8 4.87a2.17 2.17 0 00.55-1.71v-.88a2.56 2.56 0 00-.44-1.65 1.82 1.82 0 00-1.49-.53h-2v5.23h1.53a2.81 2.81 0 001.85-.46zm.3 6.71a2.74 2.74 0 00.5-1.78v-1.23a2.41 2.41 0 00-.59-1.86 2.6 2.6 0 00-1.84-.55h-1.71v6h2a2 2 0 001.64-.58zm3.3-12.3h.95l2.62 7.21 2.63-7.21h.88L311.53 59v5.27h-.91V59zm-73.94 21.2v27.57h81.08V71.76H233.6zm79.46 25.94h-77.83V73.38h77.83z"/><path class="cls-1" d="M267.21 87.64l-.26.11a1.61 1.61 0 01-.65 0 2.71 2.71 0 01-1.3-.49l-.79 1.2a3.13 3.13 0 00.93.54 3.78 3.78 0 001.28.21 3.9 3.9 0 001-.14 2.72 2.72 0 00.87-.43 2.11 2.11 0 00.82-1.76 1.77 1.77 0 00-.24-1 1.71 1.71 0 00-.35-.4 1.24 1.24 0 00-.26-.19 3 3 0 00-.78-.34l-.79-.24a2.4 2.4 0 01-.6-.29.58.58 0 01-.24-.49.53.53 0 01.1-.34.72.72 0 01.26-.23l.13-.06.21-.06h.35a1.92 1.92 0 01.61.11 2.6 2.6 0 01.58.29l.78-1.2a3 3 0 00-.84-.41 3.75 3.75 0 00-1.16-.17 3.79 3.79 0 00-1 .14 2.55 2.55 0 00-.87.44 2.07 2.07 0 00-.82 1.72 1.69 1.69 0 00.24.95 2 2 0 00.48.47l.14.11a4.12 4.12 0 00.8.35c.29.08.55.17.8.26a2 2 0 01.61.31.6.6 0 01.25.51.56.56 0 01-.1.33.7.7 0 01-.19.19zm-13.88 0h-3.43V86.2h3.07v-1.44h-3.07v-1.32h3.43V82h-4.99v7.08h4.99v-1.44zm4.87-1.32h1.14a4.9 4.9 0 001-.1 2.16 2.16 0 00.83-.36 1.73 1.73 0 00.55-.67 2.47 2.47 0 00.2-1 2.21 2.21 0 00-.22-1.05 1.76 1.76 0 00-.58-.66 2.23 2.23 0 00-.85-.34 5 5 0 00-1-.1h-2.64v7.09h1.57zm0-3h1.26a1.43 1.43 0 01.43.12.8.8 0 01.32.25.68.68 0 01.13.44.77.77 0 01-.1.42.69.69 0 01-.25.26 1.21 1.21 0 01-.35.13 1.75 1.75 0 01-.4 0h-1zM272.28 82h1.56v7.09h-1.56zm9.23 5.64h-2.89V82h-1.56v7.08h4.45v-1.44zm3.06.62a3.69 3.69 0 001.2.75 4.37 4.37 0 001.52.26 4.31 4.31 0 001.51-.27 3.49 3.49 0 001.2-.75 3.36 3.36 0 00.79-1.18 4.37 4.37 0 000-3.08 3.45 3.45 0 00-.79-1.18 3.33 3.33 0 00-1.2-.74 4.09 4.09 0 00-1.51-.26 4.15 4.15 0 00-1.52.26 3.51 3.51 0 00-1.2.74 3.45 3.45 0 00-.79 1.18 4.38 4.38 0 000 3.08 3.36 3.36 0 00.79 1.19zm.69-3.63a2.16 2.16 0 01.44-.73 2 2 0 01.69-.47 2.37 2.37 0 01.9-.17 2.28 2.28 0 01.89.17 2 2 0 01.69.47 2 2 0 01.44.73 2.7 2.7 0 010 1.83 2.06 2.06 0 01-.44.72 2 2 0 01-.69.47 2.11 2.11 0 01-.89.17 2.19 2.19 0 01-.9-.17 2 2 0 01-.69-.47 2.22 2.22 0 01-.44-.72 2.87 2.87 0 010-1.83zm9.75-.59h.02l2.98 5.04h1.97V82h-1.51v4.92h-.02l-2.9-4.92h-2.04v7.08h1.5v-5.04zm7.04-4.04a.89.89 0 11-.89.89.89.89 0 01.89-.89zm0 1.58a.69.69 0 10-.69-.69.69.69 0 00.69.73zm0-.64h-.09v.3h-.14v-.71h.27c.18 0 .28.05.28.21a.19.19 0 01-.19.2l.19.3h-.15zm0-.1c.09 0 .14 0 .14-.11s-.06-.09-.12-.09h-.15v.2z"/></g></g></svg>