<svg viewBox="0 0 32 32" xmlns="http://www.w3.org/2000/svg"><path clip-rule="evenodd" d="m15.823 12.353a13.77 13.77 0 0 1 -9.995-5.068 4.852 4.852 0 0 0 1.501 6.473 4.808 4.808 0 0 1 -2.197-.606c-.053 2.248 1.558 4.349 3.889 4.817a4.858 4.858 0 0 1 -2.19.083 4.856 4.856 0 0 0 4.53 3.368 9.75 9.75 0 0 1 -7.18 2.008 13.728 13.728 0 0 0 7.091 2.175h.708c8.776-.203 13.722-7.693 13.42-14.421a9.848 9.848 0 0 0 2.418-2.51 9.688 9.688 0 0 1 -2.784.762 4.86 4.86 0 0 0 2.132-2.683 9.677 9.677 0 0 1 -3.08 1.177 4.841 4.841 0 0 0 -3.54-1.53c-3.13 0-5.43 2.921-4.723 5.955z" fill="#fff" fill-rule="evenodd"/></svg>